<mxfile host="app.diagrams.net" modified="2024-08-07T08:33:57.619Z" agent="Mozilla/5.0 (Windows NT 10.0; Win64; x64) AppleWebKit/537.36 (KHTML, like Gecko) Chrome/126.0.0.0 Safari/537.36" version="24.6.5" etag="LXIlD9x-Hah3acr84NZC" type="github">
  <diagram name="第 1 页" id="5PnQ5XCqgET4IqAKeg4f">
    <mxGraphModel>
      <root>
        <mxCell id="0" />
        <mxCell id="1" parent="0" />
      </root>
    </mxGraphModel>
  </diagram>
</mxfile>
